<?xml version="1.0" encoding="UTF-8"?>
<!DOCTYPE svg PUBLIC "-//W3C//DTD SVG 1.1//EN" "http://www.w3.org/Graphics/SVG/1.1/DTD/svg11.dtd">
<svg version="1.1" xmlns="http://www.w3.org/2000/svg" xmlns:xlink="http://www.w3.org/1999/xlink"  xml:space="preserve" id="customersegmentschart" viewBox="0 0 460 440">
    <!-- Generated by PaintCode - http://www.paintcodeapp.com -->
    <g id="customersegmentschart-group3">
        <path id="customersegmentschart-pains" stroke="none" fill="rgb(255, 255, 255)" d="M 395.05,376.07 C 355.28,415.58 300.49,440 240,440 118.5,440 20,341.5 20,220 20,219.83 20.01,219.67 20.01,219.5 L 238.45,219.5 395.05,376.07 Z M 395.05,376.07" />
        
        <text  fill="rgb(0, 0, 0)" font-family="HelveticaNeue-Bold, 'Helvetica Neue', Helvetica, Arial, sans-serif" font-weight="bold" font-size="20" x="132.78" y="353" text-anchor="middle"><tspan x="200" y="373">(4, 2 matched)</tspan></text>
        
        <text  fill="rgb(0, 0, 0)" font-family="HelveticaNeue-Bold, 'Helvetica Neue', Helvetica, Arial, sans-serif" font-weight="bold" font-size="28" x="163.19" y="313" text-anchor="middle"><tspan x="200" y="340">Pains</tspan></text>
    </g>
    <g id="customersegmentschart-group2">
        <path id="customersegmentschart-customerJobs" stroke="none" fill="rgb(255, 255, 255)" d="M 394.55,63.45 C 434.95,103.34 460,158.74 460,220 460,281.01 435.16,336.21 395.06,376.06 L 238.5,219.5 394.55,63.45 Z M 394.55,63.45" />
        
        <text  fill="rgb(0, 0, 0)" font-family="HelveticaNeue-Bold, 'Helvetica Neue', Helvetica, Arial, sans-serif" font-weight="bold" font-size="20" x="355.52" y="243" text-anchor="middle"><tspan x="367" y="263">(3)</tspan></text>
        
        <text  fill="rgb(0, 0, 0)" font-family="HelveticaNeue-Bold, 'Helvetica Neue', Helvetica, Arial, sans-serif" font-weight="bold" font-size="28" x="301.16" y="173" text-anchor="middle"><tspan x="367" y="198">Customer </tspan><tspan x="367" y="231.81">Jobs</tspan></text>
    </g>
    <g id="customersegmentschart-group">
        <path id="customersegmentschart-gains" stroke="none" fill="rgb(255, 255, 255)" d="M 238.45,219.5 L 20.01,219.5 C 20.28,98.23 118.66,-0 240,-0 300.24,-0 354.81,24.22 394.54,63.44 L 238.45,219.5 Z M 238.45,219.5" />
        
        <text  fill="rgb(0, 0, 0)" font-family="HelveticaNeue-Bold, 'Helvetica Neue', Helvetica, Arial, sans-serif" font-weight="bold" font-size="20" x="132.78" y="103" text-anchor="middle"><tspan x="200" y="123">(3, 2 matched)</tspan></text>
        
        <text  fill="rgb(0, 0, 0)" font-family="HelveticaNeue-Bold, 'Helvetica Neue', Helvetica, Arial, sans-serif" font-weight="bold" font-size="28" x="161.91" y="63" text-anchor="middle"><tspan x="200" y="90">Gains</tspan></text>
    </g>
    <path id="customersegmentschart-outlineCopy" stroke="none" fill="rgb(0, 0, 0)" d="M 240,440 C 118.5,440 20,341.5 20,220 20,98.5 118.5,-0 240,-0 361.5,-0 460,98.5 460,220 460,341.5 361.5,440 240,440 Z M 240,4 C 120.71,4 24,100.71 24,220 24,339.29 120.71,436 240,436 359.29,436 456,339.29 456,220 456,100.71 359.29,4 240,4 Z M 394.41,67.41 L 391.59,64.59 237.59,218.59 240.41,221.41 394.41,67.41 Z M 391.59,375.41 L 394.41,372.59 240.41,218.59 237.59,221.41 391.59,375.41 Z M 22,218 L 22,222 239,222 239,218 22,218 Z M 22,218" />
    <g id="customersegmentschart-faceIcon">
        <path id="customersegmentschart-faceOutlineFill" stroke="none" fill="rgb(255, 255, 255)" d="M 209.65,240.95 C 213.35,245.84 218.14,249.98 223.9,252.86 246.17,264 273.02,253.09 281.25,229.56 288.04,210.16 279.2,188.33 260.83,179.14 238.56,168 211.71,178.91 203.48,202.44 L 196.85,218.87 C 195.95,221.04 197,223.54 199.16,224.44 L 202.46,225.8 C 203.25,228.97 204.36,232.06 205.86,234.96 L 219.53,235.74 209.65,240.95 Z M 209.65,240.95" />
        <path id="customersegmentschart-faceIconOutline" stroke="none" fill="rgb(0, 0, 0)" d="M 212.3,241.51 C 215.76,245.63 219.91,248.93 224.67,251.31 230.25,254.1 236.2,255.51 242.35,255.51 259.09,255.51 274.07,244.85 279.62,228.99 286.16,210.3 277.75,189.54 260.06,180.69 254.48,177.9 248.53,176.49 242.38,176.49 225.64,176.49 210.66,187.15 205.11,203.01 L 198.45,219.51 C 197.91,220.82 198.53,222.31 199.82,222.84 L 203.93,224.54 204.14,225.39 C 204.84,228.21 205.79,230.86 206.96,233.29 L 225.85,234.37 212.3,241.51 Z M 242.35,258.98 L 242.35,258.98 C 235.65,258.98 229.19,257.44 223.12,254.4 217.28,251.48 212.28,247.3 208.28,241.99 L 207.05,240.37 213.22,237.12 204.77,236.63 204.32,235.75 C 202.95,233.09 201.84,230.18 201.01,227.07 L 198.51,226.04 C 195.45,224.78 193.99,221.26 195.25,218.21 L 201.87,201.79 C 207.88,184.61 224.17,173.02 242.38,173.02 249.07,173.02 255.54,174.56 261.61,177.6 280.85,187.22 290,209.81 282.89,230.13 276.85,247.38 260.56,258.98 242.35,258.98 Z M 223.11,207.16 C 222.57,209.64 219.77,210.77 217.67,209.37 216.5,208.59 215.9,207.11 216.19,205.73 216.73,203.26 219.53,202.12 221.63,203.53 222.8,204.31 223.4,205.79 223.11,207.16 Z M 223.11,207.16" />
    </g>
    <path id="customersegmentschart-arrow2" stroke="none" fill="rgb(0, 0, 0)" d="M 16.01,209.85 L 13.15,206.99 -0.01,220.15 2.85,223.01 16.01,209.85 Z M 13.15,233.01 L 16.01,230.15 2.85,216.99 -0.01,219.85 13.15,233.01 Z M 27,222 L 27,218 5,218 5,222 27,222 Z M 27,222" />
</svg>
